<svg version="1.1" id="Layer_1" xmlns="http://www.w3.org/2000/svg" xmlns:xlink="http://www.w3.org/1999/xlink" x="0px" y="0px"
	 width="100%" viewBox="0 0 846 210" enable-background="new 0 0 846 210" xml:space="preserve">
<path fill="#ffffff" opacity="1.000000" stroke="none" 
	d="
M572.000000,211.000000 
	C382.877960,211.000000 194.255936,210.989868 5.633935,211.078033 
	C2.130861,211.079681 0.875216,210.684509 0.884958,206.635757 
	C1.046519,139.485367 1.042761,72.334373 0.887355,5.183958 
	C0.878592,1.397253 1.886420,0.917158 5.314318,0.918249 
	C284.414917,1.007053 563.515503,1.005285 842.616150,0.935191 
	C845.853699,0.934378 847.137024,1.132007 847.126587,5.114485 
	C846.949768,72.431427 846.962708,139.749039 847.104492,207.066147 
	C847.111938,210.623611 846.217102,211.089767 842.935425,211.085861 
	C752.790344,210.978546 662.645203,211.000000 572.000000,211.000000 
z"/>
<path fill="black" opacity="1.000000" stroke="none" 
	d="
M431.183777,113.836487 
	C416.208282,124.635201 400.478546,133.854614 382.468567,138.425888 
	C366.839386,142.392868 358.536163,139.364502 349.316437,126.271568 
	C344.815582,119.879921 340.900940,113.066948 336.269073,106.777473 
	C316.286407,79.643608 293.083435,56.174614 261.630219,42.279102 
	C256.418152,39.976505 251.035431,38.238415 245.369980,37.654469 
	C221.987869,35.244423 199.042343,35.418964 178.285797,49.703053 
	C177.546875,49.735046 177.148987,49.592285 176.680237,49.094101 
	C192.517166,36.501331 210.918167,34.164936 230.377731,34.261387 
	C258.154236,34.399052 280.218994,46.970638 300.374390,64.256653 
	C320.130798,81.200478 336.510742,101.000946 349.934601,123.329163 
	C354.476196,130.883255 360.397186,137.708191 370.165344,137.721420 
	C377.789520,137.731750 385.438232,136.421783 392.529266,133.207764 
	C405.278229,127.429283 417.739014,121.106514 429.664062,113.093445 
	C430.422760,113.048912 430.784821,113.231026 431.183777,113.836487 
z"/>
<path fill="black" opacity="1.000000" stroke="none" 
	d="
M431.603607,114.032867 
	C430.987671,113.891739 430.691101,113.649895 430.195862,113.200592 
	C448.400543,97.306015 468.427551,84.469597 492.193726,78.558556 
	C504.955811,75.384415 518.038635,76.411430 530.938477,77.314232 
	C548.946716,78.574547 566.810791,79.012405 584.883667,74.574036 
	C585.894531,74.461922 586.440735,74.617577 586.954102,75.448898 
	C569.108948,81.202393 550.898376,80.899033 532.515259,79.670326 
	C516.614807,78.607567 500.540466,77.041145 485.048340,82.780518 
	C470.467529,88.182297 456.596802,94.920570 444.337158,104.677231 
	C440.300568,107.889694 436.066681,110.854248 431.603607,114.032867 
z"/>
<path fill="black" opacity="1.000000" stroke="none" 
	d="
M684.017700,113.564903 
	C691.372498,125.553223 703.421631,128.416229 715.620056,130.800934 
	C724.980469,132.630829 734.518127,132.516190 743.992493,132.194046 
	C755.821960,131.791840 764.780334,124.821724 773.677124,118.106926 
	C778.982727,114.102554 783.883667,109.562737 788.980774,105.280525 
	C789.567993,104.787216 790.210815,103.853325 791.054871,104.562157 
	C792.316467,105.621735 791.023621,106.276245 790.399109,106.876907 
	C780.397522,116.496445 769.874207,125.587326 757.031006,131.091354 
	C742.453674,137.338577 727.282349,134.626831 712.305054,132.301346 
	C709.366882,131.845154 706.551392,130.649948 703.639893,129.962219 
	C694.748596,127.862007 687.973389,122.902618 683.120728,114.775581 
	C683.186707,114.162170 683.363708,113.894684 684.017700,113.564903 
z"/>
<path fill="black" opacity="1.000000" stroke="none" 
	d="
M176.280121,48.899002 
	C176.906494,49.006371 177.221451,49.224384 177.749512,49.635254 
	C161.734818,62.977146 148.425903,78.933815 134.744705,94.559235 
	C146.713135,77.765434 159.564713,61.787262 176.280121,48.899002 
z"/>
<path fill="black" opacity="1.000000" stroke="none" 
	d="
M642.964111,72.445633 
	C633.480896,72.463455 624.493286,72.463455 614.231201,72.463455 
	C624.917053,68.051666 655.163940,69.890198 658.553772,75.575653 
	C653.281311,72.530479 648.454651,71.893730 642.964111,72.445633 
z"/>
<path fill="black" opacity="1.000000" stroke="none" 
	d="
M44.453819,141.548981 
	C47.344585,139.176025 50.014061,138.413177 52.937641,140.812088 
	C52.193680,142.449585 51.097618,141.802780 50.216206,141.776535 
	C48.251770,141.718063 46.206890,141.973709 46.127758,144.313339 
	C46.031281,147.165802 48.329498,145.210693 49.468571,145.463638 
	C52.121426,146.052750 53.674595,147.603317 53.815536,150.180618 
	C53.973701,153.072891 52.789593,155.439880 49.704716,156.162109 
	C47.001484,156.794983 44.642097,156.034637 43.539898,153.311096 
	C41.972210,149.437332 42.097130,145.552963 44.453819,141.548981 
z"/>
<path fill="black" opacity="1.000000" stroke="none" 
	d="
M490.064026,168.114868 
	C494.976135,166.382980 496.948944,169.116013 497.893982,172.847137 
	C499.212555,178.052933 497.328491,183.133163 493.955048,184.073212 
	C490.562378,185.018600 488.257629,183.325974 487.449066,180.273453 
	C486.328766,176.043854 485.902283,171.684189 490.064026,168.114868 
z"/>
<path fill="black" opacity="1.000000" stroke="none" 
	d="
M30.798531,155.933853 
	C29.540077,153.060074 31.750917,154.101852 32.702633,154.107529 
	C35.093685,154.121735 36.397095,153.095291 36.842442,150.849716 
	C36.441582,150.567215 36.166714,150.211761 35.948368,150.243622 
	C32.032173,150.815109 29.254919,149.656616 29.022287,145.292679 
	C28.846388,141.992981 30.642509,139.882309 33.917648,139.431519 
	C37.349422,138.959152 39.804890,141.838913 40.054806,146.325043 
	C40.459736,153.593918 37.832607,156.469040 30.798531,155.933853 
z"/>
<path fill="black" opacity="1.000000" stroke="none" 
	d="
M785.526978,171.963165 
	C788.727905,171.665421 790.406067,173.128586 790.873413,175.721924 
	C791.384583,178.559006 791.338928,181.509583 788.655457,183.397446 
	C786.250305,185.089539 783.493713,183.674820 780.901184,183.741516 
	C780.634583,183.748367 780.107056,182.730408 780.097839,182.181290 
	C780.022339,177.696396 780.039856,173.209900 780.032715,168.723892 
	C780.031250,167.823227 780.280701,167.005630 781.322205,166.961349 
	C782.687561,166.903259 782.749207,167.933945 782.919922,168.979111 
	C783.137268,170.310013 782.013916,172.779007 785.526978,171.963165 
z"/>
<path fill="black" opacity="1.000000" stroke="none" 
	d="
M458.268555,171.962280 
	C461.822357,171.789780 463.077087,173.778656 463.491058,176.483719 
	C463.884186,179.052719 463.405548,181.497940 461.285492,183.224899 
	C458.935791,185.138901 456.205841,183.610336 453.659729,183.729874 
	C452.696869,183.775085 452.749969,182.477219 452.741669,181.707901 
	C452.695068,177.403564 452.698761,173.098404 452.729462,168.793823 
	C452.735260,167.980164 452.846741,167.029404 453.977631,167.029297 
	C455.202271,167.029175 455.010590,168.066986 455.091888,168.836136 
	C455.274567,170.563660 454.349396,173.244934 458.268555,171.962280 
z"/>
<path fill="black" opacity="1.000000" stroke="none" 
	d="
M53.679581,19.210815 
	C52.544899,22.486824 50.976265,24.728504 47.450455,24.216431 
	C43.947365,23.707655 43.171722,20.959949 42.668983,18.057056 
	C42.612156,17.728935 42.522682,17.404711 42.489326,17.074539 
	C41.954998,11.784663 44.445908,7.493762 48.092091,7.411660 
	C51.622246,7.332171 53.996712,10.893048 54.009735,16.340202 
	C54.011715,17.168411 53.870239,17.996960 53.679581,19.210815 
z"/>
<path fill="black" opacity="1.000000" stroke="none" 
	d="
M63.481163,7.678977 
	C68.284111,11.163825 69.482422,17.930141 66.341812,22.138308 
	C64.434402,24.694092 61.719112,25.206352 59.411728,23.403893 
	C56.060516,20.786022 56.046425,16.849113 56.821918,12.969166 
	C57.505962,9.546752 59.136616,7.153314 63.481163,7.678977 
z"/>
<path fill="black" opacity="1.000000" stroke="none" 
	d="
M58.318901,154.473083 
	C56.021595,150.662979 56.014538,146.955505 57.274265,143.217850 
	C58.013622,141.024155 59.621624,139.537186 62.006432,139.461243 
	C64.371712,139.385910 66.018852,140.722702 66.994858,142.856674 
	C68.286903,145.681656 68.406326,148.629745 67.546387,151.551498 
	C66.134872,156.347290 63.282188,157.316269 58.318901,154.473083 
z"/>
<path fill="black" opacity="1.000000" stroke="none" 
	d="
M126.574905,167.248779 
	C127.388809,170.311768 127.856613,172.574387 132.009323,172.166534 
	C135.004456,171.872360 135.855438,175.003677 135.864532,177.595093 
	C135.874924,180.557770 135.039627,183.306931 131.584076,184.029266 
	C126.404259,185.112015 124.768593,183.859955 125.059952,178.418839 
	C125.262169,174.642456 123.629059,170.631729 126.574905,167.248779 
z"/>
<path fill="black" opacity="1.000000" stroke="none" 
	d="
M164.687698,167.333221 
	C168.269897,168.374527 170.118683,170.091156 168.112244,173.574661 
	C167.472656,174.685104 167.146271,175.369507 168.173889,176.555389 
	C169.896469,178.543259 169.958115,180.997345 168.040207,182.823151 
	C165.645035,185.103333 162.850266,184.885834 159.692978,183.087524 
	C161.773071,180.938660 166.362488,183.736877 166.361984,179.326035 
	C166.361633,176.345383 163.029449,177.169739 161.427170,175.600479 
	C162.026459,173.288193 167.104630,174.701721 165.722107,171.037689 
	C164.798019,168.588608 162.109985,170.440216 160.192627,169.547958 
	C160.653992,167.104355 162.737869,167.615540 164.687698,167.333221 
z"/>
<path fill="black" opacity="1.000000" stroke="none" 
	d="
M78.780823,144.075165 
	C80.210617,144.129974 80.747734,144.843979 79.863655,145.550201 
	C76.022652,148.618515 77.178795,151.260452 80.298981,153.913757 
	C80.753815,154.300522 80.980865,154.955139 81.357468,155.556320 
	C77.829849,157.085678 77.144363,153.470108 74.997520,152.472351 
	C73.424736,152.438141 74.080101,153.822357 73.850143,154.608124 
	C73.566597,155.577042 72.986366,155.976028 72.049652,155.815964 
	C71.253571,155.679901 71.078957,155.005112 71.075974,154.328400 
	C71.056190,149.844162 71.044777,145.359772 71.063599,140.875580 
	C71.067123,140.034866 71.257744,139.104019 72.312798,139.081985 
	C73.649452,139.054047 73.837440,140.131409 73.856483,141.158600 
	C73.893074,143.132187 73.867142,145.106964 73.867142,147.163910 
	C76.421951,147.209366 76.816399,144.779694 78.780823,144.075165 
z"/>
<path fill="black" opacity="1.000000" stroke="none" 
	d="
M73.250816,23.600555 
	C71.658379,24.029184 71.062973,23.461115 71.059402,22.220419 
	C71.047005,17.909863 71.021736,13.599192 71.045265,9.288804 
	C71.050514,8.326732 71.016251,7.088596 72.387772,7.079814 
	C73.683647,7.071518 73.847404,8.207522 73.862465,9.231616 
	C73.891243,11.187728 73.870819,13.144564 73.870819,15.135475 
	C76.787231,15.361267 77.047417,11.185106 80.754570,12.522860 
	C75.483200,16.512291 77.307968,20.097115 81.716698,23.183836 
	C79.015961,24.861258 77.866837,23.261024 76.712753,21.917696 
	C73.825089,18.556524 74.070145,21.720596 73.250816,23.600555 
z"/>
<path fill="black" opacity="1.000000" stroke="none" 
	d="
M36.750435,16.616533 
	C36.005630,17.337046 35.478020,17.752144 35.047638,18.251104 
	C34.323666,19.090435 32.922272,19.738783 33.360367,21.035614 
	C33.847950,22.478935 35.365398,21.622835 36.405075,21.874285 
	C37.275547,22.084812 38.474564,21.632751 38.810223,23.618462 
	C36.168213,24.429968 33.429646,24.005268 30.763147,23.960550 
	C28.633568,23.924835 28.759729,22.369026 29.567772,21.209650 
	C30.881979,19.324034 32.512817,17.655699 34.044201,15.925922 
	C35.275501,14.535107 36.665783,13.071935 35.787964,11.110630 
	C34.908943,9.146637 33.011818,9.850430 31.408800,10.051035 
	C30.745737,10.134010 30.074560,10.274748 29.658819,9.054459 
	C32.010689,6.638527 34.869488,6.581627 37.324673,8.564524 
	C40.325504,10.988111 39.213562,13.827206 36.750435,16.616533 
z"/>
<path fill="black" opacity="1.000000" stroke="none" 
	d="
M480.590240,184.025909 
	C477.863037,183.565704 474.514740,185.454285 473.417969,182.935837 
	C472.360962,180.508743 475.418274,178.765732 477.025665,176.960052 
	C478.438629,175.372803 480.533081,173.991531 479.920837,171.547379 
	C479.030396,167.992645 475.480499,171.165512 473.386414,169.277222 
	C476.252014,166.707977 479.138916,166.525452 481.701416,168.884720 
	C484.100647,171.093674 483.186005,173.711990 481.358185,175.982269 
	C480.029022,177.633194 477.972931,178.661636 477.150116,180.845978 
	C478.278290,182.682755 480.175598,181.468826 481.613922,181.978592 
	C482.274048,182.212570 482.997742,182.503448 482.609192,183.258835 
	C482.395630,183.674072 481.567444,183.773163 480.590240,184.025909 
z"/>
<path fill="#black" opacity="1.000000" stroke="none" 
	d="
M810.396606,172.653244 
	C809.784668,176.697983 805.492065,177.825012 804.409790,181.100372 
	C806.181030,182.828415 808.896301,180.704361 810.605286,183.510574 
	C807.633362,184.456635 804.878723,184.056168 802.218750,183.943466 
	C800.044861,183.851364 800.510132,182.043793 801.198853,181.037659 
	C802.491394,179.149597 804.160645,177.519592 805.670959,175.780334 
	C806.765930,174.519379 808.083313,173.134109 807.477905,171.419449 
	C806.795898,169.487946 804.899109,169.751633 803.209900,169.940720 
	C802.616699,170.007126 802.001221,169.875198 800.926147,169.801682 
	C802.380798,167.149994 804.435852,167.135071 806.516724,167.481232 
	C809.171204,167.922867 810.552795,169.555405 810.396606,172.653244 
z"/>
<path fill="#7D7D7D" opacity="1.000000" stroke="none" 
	d="
M105.019348,177.151337 
	C104.357430,177.648026 104.082146,178.045395 103.856812,178.469299 
	C102.964119,180.148682 105.171356,183.681488 101.912125,183.511337 
	C100.003677,183.411713 101.157944,180.128113 100.926758,178.288376 
	C100.762711,176.982880 100.894287,175.640137 100.894958,174.314026 
	C100.898590,167.079010 102.035919,166.355804 109.874840,168.720932 
	C108.899269,171.720139 103.772400,167.877151 103.790985,172.432922 
	C103.805893,176.089310 107.704727,173.869263 108.874939,175.711594 
	C108.148239,177.648102 106.554260,176.703644 105.019348,177.151337 
z"/>
<path fill="#7C7C7C" opacity="1.000000" stroke="none" 
	d="
M444.391968,181.710510 
	C446.114380,182.360901 447.726898,181.354538 449.947906,183.418076 
	C446.091675,184.319000 443.213226,185.067535 440.767578,181.974014 
	C438.617218,179.254044 439.302216,174.229080 442.020844,172.634201 
	C444.018341,171.462387 446.108551,171.406921 447.946838,173.128143 
	C449.147705,174.252548 449.388977,175.765976 449.208618,177.246994 
	C448.978607,179.135605 447.326477,178.645111 446.080780,178.809219 
	C444.494659,179.018188 441.735809,178.419891 444.391968,181.710510 
z"/>
<path fill="#7C7C7C" opacity="1.000000" stroke="none" 
	d="
M116.464249,184.098114 
	C111.529480,182.560272 111.367516,179.023499 112.281998,175.249069 
	C112.721184,173.436386 114.111717,172.142044 116.179756,171.939697 
	C117.902580,171.771164 119.460701,172.008804 120.593521,173.522903 
	C122.643959,176.263474 121.791275,178.294922 118.421059,178.814941 
	C117.281555,178.990738 115.258476,178.157837 115.348709,180.142639 
	C115.431107,181.955032 117.294128,182.007477 118.849113,182.003708 
	C119.751328,182.001526 120.854294,181.455872 121.583908,182.861954 
	C120.391136,184.676559 118.487625,184.032730 116.464249,184.098114 
z"/>
<path fill="#7D7D7D" opacity="1.000000" stroke="none" 
	d="
M776.873840,176.173203 
	C776.924988,179.201096 774.909729,178.581833 773.378601,178.799652 
	C772.342529,178.947052 770.620056,178.321960 770.516907,179.782272 
	C770.383484,181.671341 772.126465,181.946182 773.689087,182.003540 
	C774.651550,182.038849 775.613281,182.095825 777.194153,182.173462 
	C774.765198,184.990448 772.229736,184.554916 769.999023,183.453354 
	C767.330139,182.135422 766.585938,179.513107 767.083923,176.686554 
	C767.510254,174.266708 768.737122,172.374313 771.430237,171.961029 
	C774.442688,171.498749 776.080078,173.020950 776.873840,176.173203 
z"/>
<path fill="#AEAEAE" opacity="1.000000" stroke="none" 
	d="
M587.356201,75.906662 
	C586.615356,75.582413 586.242188,75.275833 585.575134,74.755569 
	C597.379150,71.391350 610.350891,70.198479 616.329163,72.171021 
	C606.830383,73.667130 597.125732,73.775116 587.356201,75.906662 
z"/>
<path fill="#848484" opacity="1.000000" stroke="none" 
	d="
M437.179779,168.214020 
	C437.491852,170.650650 435.729218,169.803940 434.616425,169.941086 
	C433.013306,170.138641 431.197784,169.678879 431.184509,172.307632 
	C431.172241,174.742783 432.666901,174.888779 434.460571,174.900162 
	C435.237885,174.905075 436.118652,174.820694 436.809875,176.173416 
	C433.041504,176.672638 430.073822,178.040115 431.023041,182.637405 
	C431.161865,183.309738 430.564087,183.887543 429.789337,183.795425 
	C429.036530,183.705887 428.708099,183.090195 428.703217,182.383163 
	C428.674622,178.242767 428.657257,174.102142 428.666656,169.961670 
	C428.670746,168.163834 429.879395,167.834259 431.352600,167.876984 
	C433.172211,167.929749 434.992065,167.972656 437.179779,168.214020 
z"/>
<path fill="#848484" opacity="1.000000" stroke="none" 
	d="
M15.272253,14.239267 
	C15.826747,17.632343 13.315839,21.590336 19.521843,22.978203 
	C15.459279,24.472824 12.780785,24.007027 9.886273,23.751827 
	C13.804893,19.675432 13.966660,14.448252 10.544152,10.338374 
	C10.277976,10.018738 9.978931,9.372814 10.122015,9.124712 
	C10.916698,7.746758 12.429708,8.050207 13.691917,7.829188 
	C14.762342,7.641752 15.159260,8.386019 15.196550,9.305415 
	C15.257233,10.801516 15.250657,12.300344 15.272253,14.239267 
z"/>
<path fill="#7D7D7D" opacity="1.000000" stroke="none" 
	d="
M148.175842,170.480408 
	C146.688553,167.016724 149.670410,168.319962 150.924896,167.875641 
	C152.424652,167.344406 152.970505,168.365250 152.966873,169.767776 
	C152.960037,172.418930 153.096863,175.076736 152.950729,177.719437 
	C152.817810,180.123032 153.045486,182.187012 156.034225,183.188339 
	C152.941101,184.254868 150.187561,184.216263 147.204590,183.617844 
	C150.655533,180.305893 151.202423,173.941055 148.175842,170.480408 
z"/>
<path fill="#818181" opacity="1.000000" stroke="none" 
	d="
M756.001587,177.853027 
	C756.001587,176.388519 756.000854,175.392990 756.001770,174.397446 
	C756.008667,167.181305 757.437195,166.270111 764.810242,168.865982 
	C763.765076,171.535187 758.556519,167.849274 758.947449,172.774872 
	C759.223206,176.250732 762.745483,173.815079 764.045837,176.167526 
	C760.184937,176.606781 757.981934,178.471542 758.772705,182.597458 
	C758.903198,183.278137 758.273315,183.772583 757.524719,183.834473 
	C756.424988,183.925430 756.109741,183.206314 756.075073,182.301575 
	C756.024048,180.976059 756.023621,179.648621 756.001587,177.853027 
z"/>
<path fill="#818181" opacity="1.000000" stroke="none" 
	d="
M819.052368,183.080505 
	C815.982910,184.855560 815.942810,183.215698 816.852966,181.286743 
	C818.531616,177.728775 820.468140,174.292450 822.315369,170.770920 
	C820.110229,169.127640 817.226440,171.221954 814.924438,168.711655 
	C818.137085,167.224319 821.237610,167.827652 824.185608,167.994736 
	C826.801453,168.142960 825.849121,169.980133 825.074646,171.222122 
	C822.782349,174.898132 820.641113,178.637238 819.052368,183.080505 
z"/>
<path fill="#AEAEAE" opacity="1.000000" stroke="none" 
	d="
M682.907471,113.466652 
	C677.910522,107.430344 674.767578,100.432655 671.065063,93.757553 
	C670.871887,93.409309 671.040100,92.860626 672.150269,91.823074 
	C676.003662,98.490891 679.856995,105.158714 683.815002,112.178543 
	C683.733459,112.790581 683.547302,113.050606 682.907471,113.466652 
z"/>
<path fill="#AEAEAE" opacity="1.000000" stroke="none" 
	d="
M668.024292,87.376564 
	C664.511292,83.455650 661.498291,79.510712 658.485229,75.565773 
	C663.686951,77.408401 666.218994,81.535767 668.781738,86.079315 
	C668.770325,86.732117 668.647339,87.042351 668.024292,87.376564 
z"/>
<path fill="#AEAEAE" opacity="1.000000" stroke="none" 
	d="
M668.550476,86.665680 
	C670.237793,88.327446 671.766052,90.145676 672.417358,93.308792 
	C669.293701,92.231422 668.976501,89.807564 667.668945,87.770844 
	C667.752075,87.236877 667.979858,87.073151 668.550476,86.665680 
z"/>
<path fill="#AEAEAE" opacity="1.000000" stroke="none" 
	d="
M683.548218,112.796906 
	C684.133179,112.686676 684.293884,112.885498 684.448242,113.314804 
	C684.250488,113.662369 684.006287,113.822144 683.385925,114.205780 
	C682.801636,114.320671 682.644165,114.161583 682.495544,113.787537 
	C682.694824,113.436211 682.935791,113.249733 683.548218,112.796906 
z"/>
<path fill="#111111" opacity="1.000000" stroke="none" 
	d="
M45.875725,151.705383 
	C45.574463,149.385742 46.158195,147.971481 48.320435,147.905212 
	C49.579781,147.866623 50.588238,148.524673 50.828335,149.851761 
	C51.065449,151.162369 51.245552,152.665131 49.943516,153.478531 
	C48.223625,154.552994 46.789448,154.052246 45.875725,151.705383 
z"/>
<path fill="#111111" opacity="1.000000" stroke="none" 
	d="
M489.585022,176.864349 
	C490.031250,174.027969 488.889526,169.988220 492.498199,170.159515 
	C496.298950,170.339935 495.172852,174.404175 495.205200,177.003708 
	C495.228241,178.857101 495.445984,181.494217 492.839691,181.810318 
	C489.615753,182.201340 490.111298,179.251480 489.585022,176.864349 
z"/>
<path fill="black" opacity="1.000000" stroke="none" 
	d="
M31.931679,145.825790 
	C31.863550,143.697952 31.932339,141.945511 34.225475,141.858749 
	C35.715313,141.802383 36.664318,142.709579 36.933086,144.189392 
	C37.173805,145.514771 37.281380,146.952530 35.902828,147.691360 
	C34.190445,148.609100 32.729065,148.267075 31.931679,145.825790 
z"/>
<path fill="black" opacity="1.000000" stroke="none" 
	d="
M783.186279,180.515320 
	C782.997253,179.637329 782.955017,179.143051 782.927002,178.647980 
	C782.817871,176.717102 783.040649,174.960220 785.303162,174.345947 
	C786.444763,174.036011 787.337708,174.575790 787.712524,175.538574 
	C788.392273,177.284622 788.553711,179.268219 787.533386,180.818665 
	C786.426086,182.501266 784.772400,182.361069 783.186279,180.515320 
z"/>
<path fill="black" opacity="1.000000" stroke="none" 
	d="
M457.187317,181.907791 
	C456.409943,181.527222 455.817841,181.306168 455.670990,180.917053 
	C454.747498,178.470123 454.417847,176.091080 457.213013,174.538574 
	C459.050842,173.517761 460.230743,174.680557 460.584015,176.155182 
	C461.212463,178.778229 461.568481,181.598190 457.187317,181.907791 
z"/>
<path fill="#161616" opacity="1.000000" stroke="none" 
	d="
M46.145939,11.199055 
	C48.538013,8.931286 49.957359,9.936876 50.759300,12.211702 
	C51.129227,13.261049 51.152100,14.501575 51.056435,15.632069 
	C50.849648,18.075590 51.805660,21.877708 48.093815,21.741066 
	C44.778339,21.619013 45.227726,17.923588 45.161846,15.396413 
	C45.128792,14.128448 45.678421,12.845293 46.145939,11.199055 
z"/>
<path fill="#161616" opacity="1.000000" stroke="none" 
	d="
M59.189186,17.597572 
	C59.333122,14.366811 58.518761,10.036089 62.347500,10.173587 
	C66.394341,10.318916 64.785652,14.752094 64.994835,17.469299 
	C65.134010,19.277020 64.901253,21.435553 62.702660,21.847363 
	C59.873074,22.377361 59.875565,19.773142 59.189186,17.597572 
z"/>
<path fill="#161616" opacity="1.000000" stroke="none" 
	d="
M62.096146,141.906891 
	C66.850800,144.738968 64.938728,148.765091 64.367271,152.471146 
	C64.223755,153.401917 63.240482,154.051254 62.082764,153.959442 
	C60.959419,153.870377 60.239174,153.230804 59.949020,152.211517 
	C58.899429,148.524323 57.934429,144.825836 62.096146,141.906891 
z"/>
<path fill="#1C1C1C" opacity="1.000000" stroke="none" 
	d="
M132.676804,180.435822 
	C130.758102,182.685074 128.846558,182.710617 127.779678,180.416855 
	C126.884430,178.492111 126.857765,176.185547 129.069733,174.699219 
	C129.926895,174.123245 130.868195,173.812714 131.785538,174.572922 
	C133.633362,176.104233 133.018021,178.135315 132.676804,180.435822 
z"/>
<path fill="#272727" opacity="1.000000" stroke="none" 
	d="
M445.393219,176.532471 
	C444.083771,176.525909 442.887909,176.596375 443.068604,175.129990 
	C443.194458,174.108932 444.178345,173.848434 444.987457,174.093094 
	C446.214050,174.463989 447.221344,175.135910 445.393219,176.532471 
z"/>
<path fill="#272727" opacity="1.000000" stroke="none" 
	d="
M118.610825,175.096191 
	C118.101242,177.157410 116.822525,176.781387 115.639450,176.214172 
	C114.944023,175.880753 115.008820,175.089203 115.510323,174.612198 
	C116.497475,173.673279 117.527069,173.858002 118.610825,175.096191 
z"/>
<path fill="#272727" opacity="1.000000" stroke="none" 
	d="
M773.747070,175.031494 
	C773.219666,177.103897 771.953125,176.778168 770.731201,176.239883 
	C770.492920,176.134933 770.281982,175.326569 770.436646,175.077637 
	C771.304504,173.680939 772.436768,173.685669 773.747070,175.031494 
z"/>
</svg>