<?xml version="1.0" encoding="utf-8"?>
<!-- Generator: Adobe Illustrator 28.0.0, SVG Export Plug-In . SVG Version: 6.00 Build 0)  -->
<svg version="1.1" id="Layer_1" xmlns="http://www.w3.org/2000/svg" xmlns:xlink="http://www.w3.org/1999/xlink" x="0px" y="0px"
	 viewBox="0 0 1200 362" style="enable-background:new 0 0 1200 362;" xml:space="preserve">
<style type="text/css">
	.st0{fill:#FFFFFF;}
	.st1{font-family:'Calibri';}
	.st2{font-size:37.1537px;}
	.st3{fill:none;stroke:#000000;stroke-miterlimit:10;}
</style>
<g>
	<rect class="st0" width="1200" height="362"/>
	<text transform="matrix(1 0 0 1 61.748 248.0166)" class="st1 st2">960k</text>
	<text transform="matrix(1 0 0 1 34.6328 69.0518)" class="st1 st2">1 200k</text>
	<text transform="matrix(1 0 0 1 156.6543 288.6904)" class="st1 st2">Feb 13</text>
	<text transform="matrix(1 0 0 1 601.3535 288.6904)" class="st1 st2">Feb 20</text>
	<text transform="matrix(1 0 0 1 1046.0537 288.6904)" class="st1 st2">Feb 27</text>
	<path class="st3" d="M208.2,166.1c25.2-49.2,73.2-80.8,124.7-81.3c46.4-0.5,88.4,33,94.9,38c14.7,11.2,28.5,25.8,28.5,25.8
		c3.8,4,9.6,10.2,16.3,19c13.6,18,13.7,24.5,27.1,40.7c10.2,12.3,15.4,14.9,19,16.3c8.3,3,16.1,2,24.4,0
		c24.1-5.8,42.7-17.5,56.9-27.1c26.2-17.8,21.6-17.9,40.7-29.8c18-11.3,34.3-21.2,56.9-24.4c3.4-0.5,3.9-0.4,32.5,0
		c48.5,0.6,54,0.4,59.7,0c20.3-1.5,13.6-3.5,48.8-8.1c0,0,17.4-2.3,67.8,0c2,0.1,6.2,0.3,10.8,2.7c6.1,3.1,9.3,8.2,10.8,10.8
		c10.2,16.9,17.6,35.7,27.1,48.8c1.5,2.1,4,5.3,8.1,8.1c4,2.7,7.5,3.7,13.6,5.4c19.2,5.5,17.6,5.1,19,5.4c6.5,1.4,19.1,4,35.3,2.7
		c6.4-0.5,10.7-0.8,16.3-2.7c8.5-2.8,13.6-7.1,21.7-13.6c5.6-4.5,14.3-11.5,27.1-21.7"/>
</g>
</svg>
